<svg width="41" height="40" viewBox="0 0 41 40" fill="none" xmlns="http://www.w3.org/2000/svg">
<path fill-rule="evenodd" clip-rule="evenodd" d="M20.7877 40C31.8334 40 40.7877 31.0457 40.7877 20C40.7877 8.9543 31.8334 0 20.7877 0C9.74202 0 0.78772 8.9543 0.78772 20C0.78772 31.0457 9.74202 40 20.7877 40ZM20.8293 39.7495C31.5554 39.7495 40.2505 30.9588 40.2505 20.1149C40.2505 9.27101 31.5554 0.480297 20.8293 0.480297C10.1033 0.480297 1.40816 9.27101 1.40816 20.1149C1.40816 30.9588 10.1033 39.7495 20.8293 39.7495Z" fill="#D9D9D9"/>
<path d="M16.6696 23.9692C16.6696 25.1621 16.2501 26.1714 15.4112 26.9972C14.5788 27.8165 13.5727 28.2261 12.393 28.2261C11.7048 28.2261 11.1477 28.1507 10.7217 28L11.1051 25.4832C11.4066 25.5488 11.6688 25.5815 11.8916 25.5815C12.0227 25.5946 12.2128 25.5914 12.4618 25.5717C12.9009 25.5389 13.2712 25.3816 13.5727 25.0998C13.8742 24.8114 14.025 24.4542 14.025 24.0282V10.0679H16.6696V23.9692ZM20.5639 28H17.8702V10.0679H21.7436L24.2604 22.9271L26.6789 10.0679H30.4049V28H27.7014V16.7334L25.3615 28H23.1888L20.5639 16.7629V28Z" fill="white"/>
</svg>
